<?xml version="1.0" encoding="UTF-8"?>
<svg xmlns="http://www.w3.org/2000/svg" xmlns:xlink="http://www.w3.org/1999/xlink" width="370pt" height="226pt" viewBox="0 0 370 226" version="1.1">
<g id="surface1">
<path style="fill-rule:evenodd;fill:rgb(20%,20%,20%);fill-opacity:1;stroke-width:1.2;stroke-linecap:butt;stroke-linejoin:round;stroke:rgb(20%,20%,20%);stroke-opacity:1;stroke-miterlimit:10;" d="M 159.999219 704.000781 L 255.999219 768.000781 " transform="matrix(1,0,0,-1,-71.3,784.7)"/>
<path style="fill-rule:evenodd;fill:rgb(20%,20%,20%);fill-opacity:1;stroke-width:1.2;stroke-linecap:butt;stroke-linejoin:round;stroke:rgb(20%,20%,20%);stroke-opacity:1;stroke-miterlimit:10;" d="M 159.999219 704.000781 L 111.999219 640.000781 " transform="matrix(1,0,0,-1,-71.3,784.7)"/>
<path style="fill-rule:evenodd;fill:rgb(20%,20%,20%);fill-opacity:1;stroke-width:1.2;stroke-linecap:butt;stroke-linejoin:round;stroke:rgb(20%,20%,20%);stroke-opacity:1;stroke-miterlimit:10;" d="M 111.999219 640.000781 L 87.999219 576.000781 " transform="matrix(1,0,0,-1,-71.3,784.7)"/>
<path style="fill-rule:evenodd;fill:rgb(20%,20%,20%);fill-opacity:1;stroke-width:1.2;stroke-linecap:butt;stroke-linejoin:round;stroke:rgb(20%,20%,20%);stroke-opacity:1;stroke-miterlimit:10;" d="M 111.999219 640.000781 L 135.999219 576.000781 " transform="matrix(1,0,0,-1,-71.3,784.7)"/>
<path style="fill-rule:evenodd;fill:rgb(20%,20%,20%);fill-opacity:1;stroke-width:1.2;stroke-linecap:butt;stroke-linejoin:round;stroke:rgb(20%,20%,20%);stroke-opacity:1;stroke-miterlimit:10;" d="M 183.999219 576.000781 L 207.999219 640.000781 " transform="matrix(1,0,0,-1,-71.3,784.7)"/>
<path style="fill-rule:evenodd;fill:rgb(20%,20%,20%);fill-opacity:1;stroke-width:1.2;stroke-linecap:butt;stroke-linejoin:round;stroke:rgb(20%,20%,20%);stroke-opacity:1;stroke-miterlimit:10;" d="M 207.999219 640.000781 L 231.999219 576.000781 " transform="matrix(1,0,0,-1,-71.3,784.7)"/>
<path style="fill-rule:evenodd;fill:rgb(20%,20%,20%);fill-opacity:1;stroke-width:1.2;stroke-linecap:butt;stroke-linejoin:round;stroke:rgb(20%,20%,20%);stroke-opacity:1;stroke-miterlimit:10;" d="M 279.999219 576.000781 L 303.999219 640.000781 " transform="matrix(1,0,0,-1,-71.3,784.7)"/>
<path style="fill-rule:evenodd;fill:rgb(20%,20%,20%);fill-opacity:1;stroke-width:1.2;stroke-linecap:butt;stroke-linejoin:round;stroke:rgb(20%,20%,20%);stroke-opacity:1;stroke-miterlimit:10;" d="M 327.999219 576.000781 L 303.999219 640.000781 " transform="matrix(1,0,0,-1,-71.3,784.7)"/>
<path style="fill-rule:evenodd;fill:rgb(20%,20%,20%);fill-opacity:1;stroke-width:1.2;stroke-linecap:butt;stroke-linejoin:round;stroke:rgb(20%,20%,20%);stroke-opacity:1;stroke-miterlimit:10;" d="M 375.999219 576.000781 L 399.999219 640.000781 " transform="matrix(1,0,0,-1,-71.3,784.7)"/>
<path style="fill-rule:evenodd;fill:rgb(20%,20%,20%);fill-opacity:1;stroke-width:1.2;stroke-linecap:butt;stroke-linejoin:round;stroke:rgb(20%,20%,20%);stroke-opacity:1;stroke-miterlimit:10;" d="M 399.999219 640.000781 L 423.999219 576.000781 " transform="matrix(1,0,0,-1,-71.3,784.7)"/>
<path style="fill-rule:evenodd;fill:rgb(20%,20%,20%);fill-opacity:1;stroke-width:1.2;stroke-linecap:butt;stroke-linejoin:round;stroke:rgb(20%,20%,20%);stroke-opacity:1;stroke-miterlimit:10;" d="M 303.999219 640.000781 L 343.999219 704.000781 " transform="matrix(1,0,0,-1,-71.3,784.7)"/>
<path style="fill-rule:evenodd;fill:rgb(20%,20%,20%);fill-opacity:1;stroke-width:1.2;stroke-linecap:butt;stroke-linejoin:round;stroke:rgb(20%,20%,20%);stroke-opacity:1;stroke-miterlimit:10;" d="M 343.999219 704.000781 L 399.999219 640.000781 " transform="matrix(1,0,0,-1,-71.3,784.7)"/>
<path style="fill-rule:evenodd;fill:rgb(20%,20%,20%);fill-opacity:1;stroke-width:1.2;stroke-linecap:butt;stroke-linejoin:round;stroke:rgb(20%,20%,20%);stroke-opacity:1;stroke-miterlimit:10;" d="M 343.999219 704.000781 L 255.999219 768.000781 " transform="matrix(1,0,0,-1,-71.3,784.7)"/>
<path style="fill-rule:evenodd;fill:rgb(20%,20%,20%);fill-opacity:1;stroke-width:1.2;stroke-linecap:butt;stroke-linejoin:round;stroke:rgb(20%,20%,20%);stroke-opacity:1;stroke-miterlimit:10;" d="M 159.999219 704.000781 L 207.999219 640.000781 " transform="matrix(1,0,0,-1,-71.3,784.7)"/>
<path style="fill-rule:evenodd;fill:rgb(20%,20%,20%);fill-opacity:1;stroke-width:0.4;stroke-linecap:butt;stroke-linejoin:round;stroke:rgb(20%,20%,20%);stroke-opacity:1;stroke-miterlimit:10;" d="M 271.999219 768.000781 C 271.999219 776.836719 264.835156 784.000781 255.999219 784.000781 C 247.163281 784.000781 239.999219 776.836719 239.999219 768.000781 C 239.999219 759.164844 247.163281 752.000781 255.999219 752.000781 C 264.835156 752.000781 271.999219 759.164844 271.999219 768.000781 Z M 271.999219 768.000781 " transform="matrix(1,0,0,-1,-71.3,784.7)"/>
<path style="fill-rule:evenodd;fill:rgb(20%,20%,20%);fill-opacity:1;stroke-width:0.4;stroke-linecap:butt;stroke-linejoin:round;stroke:rgb(20%,20%,20%);stroke-opacity:1;stroke-miterlimit:10;" d="M 359.999219 704.000781 C 359.999219 712.836719 352.835156 720.000781 343.999219 720.000781 C 335.163281 720.000781 327.999219 712.836719 327.999219 704.000781 C 327.999219 695.164844 335.163281 688.000781 343.999219 688.000781 C 352.835156 688.000781 359.999219 695.164844 359.999219 704.000781 Z M 359.999219 704.000781 " transform="matrix(1,0,0,-1,-71.3,784.7)"/>
<path style="fill-rule:evenodd;fill:rgb(100%,50%,50%);fill-opacity:1;stroke-width:0.4;stroke-linecap:butt;stroke-linejoin:round;stroke:rgb(100%,50%,50%);stroke-opacity:1;stroke-miterlimit:10;" d="M 175.999219 704.000781 C 175.999219 712.836719 168.835156 720.000781 159.999219 720.000781 C 151.163281 720.000781 143.999219 712.836719 143.999219 704.000781 C 143.999219 695.164844 151.163281 688.000781 159.999219 688.000781 C 168.835156 688.000781 175.999219 695.164844 175.999219 704.000781 Z M 175.999219 704.000781 " transform="matrix(1,0,0,-1,-71.3,784.7)"/>
<path style="fill-rule:evenodd;fill:rgb(100%,50%,50%);fill-opacity:1;stroke-width:0.4;stroke-linecap:butt;stroke-linejoin:round;stroke:rgb(100%,50%,50%);stroke-opacity:1;stroke-miterlimit:10;" d="M 319.999219 640.000781 C 319.999219 648.836719 312.835156 656.000781 303.999219 656.000781 C 295.163281 656.000781 287.999219 648.836719 287.999219 640.000781 C 287.999219 631.164844 295.163281 624.000781 303.999219 624.000781 C 312.835156 624.000781 319.999219 631.164844 319.999219 640.000781 Z M 319.999219 640.000781 " transform="matrix(1,0,0,-1,-71.3,784.7)"/>
<path style="fill-rule:evenodd;fill:rgb(100%,50%,50%);fill-opacity:1;stroke-width:0.4;stroke-linecap:butt;stroke-linejoin:round;stroke:rgb(100%,50%,50%);stroke-opacity:1;stroke-miterlimit:10;" d="M 415.999219 640.000781 C 415.999219 648.836719 408.835156 656.000781 399.999219 656.000781 C 391.163281 656.000781 383.999219 648.836719 383.999219 640.000781 C 383.999219 631.164844 391.163281 624.000781 399.999219 624.000781 C 408.835156 624.000781 415.999219 631.164844 415.999219 640.000781 Z M 415.999219 640.000781 " transform="matrix(1,0,0,-1,-71.3,784.7)"/>
<path style="fill-rule:evenodd;fill:rgb(20%,20%,20%);fill-opacity:1;stroke-width:0.4;stroke-linecap:butt;stroke-linejoin:round;stroke:rgb(20%,20%,20%);stroke-opacity:1;stroke-miterlimit:10;" d="M 223.999219 640.000781 C 223.999219 648.836719 216.835156 656.000781 207.999219 656.000781 C 199.163281 656.000781 191.999219 648.836719 191.999219 640.000781 C 191.999219 631.164844 199.163281 624.000781 207.999219 624.000781 C 216.835156 624.000781 223.999219 631.164844 223.999219 640.000781 Z M 223.999219 640.000781 " transform="matrix(1,0,0,-1,-71.3,784.7)"/>
<path style="fill-rule:evenodd;fill:rgb(20%,20%,20%);fill-opacity:1;stroke-width:0.4;stroke-linecap:butt;stroke-linejoin:round;stroke:rgb(20%,20%,20%);stroke-opacity:1;stroke-miterlimit:10;" d="M 127.999219 640.000781 C 127.999219 648.836719 120.835156 656.000781 111.999219 656.000781 C 103.163281 656.000781 95.999219 648.836719 95.999219 640.000781 C 95.999219 631.164844 103.163281 624.000781 111.999219 624.000781 C 120.835156 624.000781 127.999219 631.164844 127.999219 640.000781 Z M 127.999219 640.000781 " transform="matrix(1,0,0,-1,-71.3,784.7)"/>
<path style="fill-rule:evenodd;fill:rgb(20%,20%,20%);fill-opacity:1;stroke-width:0.4;stroke-linecap:butt;stroke-linejoin:round;stroke:rgb(20%,20%,20%);stroke-opacity:1;stroke-miterlimit:10;" d="M 103.999219 576.000781 C 103.999219 584.836719 96.835156 592.000781 87.999219 592.000781 C 79.163281 592.000781 71.999219 584.836719 71.999219 576.000781 C 71.999219 567.164844 79.163281 560.000781 87.999219 560.000781 C 96.835156 560.000781 103.999219 567.164844 103.999219 576.000781 Z M 103.999219 576.000781 " transform="matrix(1,0,0,-1,-71.3,784.7)"/>
<path style="fill-rule:evenodd;fill:rgb(20%,20%,20%);fill-opacity:1;stroke-width:0.4;stroke-linecap:butt;stroke-linejoin:round;stroke:rgb(20%,20%,20%);stroke-opacity:1;stroke-miterlimit:10;" d="M 199.999219 576.000781 C 199.999219 584.836719 192.835156 592.000781 183.999219 592.000781 C 175.163281 592.000781 167.999219 584.836719 167.999219 576.000781 C 167.999219 567.164844 175.163281 560.000781 183.999219 560.000781 C 192.835156 560.000781 199.999219 567.164844 199.999219 576.000781 Z M 199.999219 576.000781 " transform="matrix(1,0,0,-1,-71.3,784.7)"/>
<path style="fill-rule:evenodd;fill:rgb(20%,20%,20%);fill-opacity:1;stroke-width:0.4;stroke-linecap:butt;stroke-linejoin:round;stroke:rgb(20%,20%,20%);stroke-opacity:1;stroke-miterlimit:10;" d="M 247.999219 576.000781 C 247.999219 584.836719 240.835156 592.000781 231.999219 592.000781 C 223.163281 592.000781 215.999219 584.836719 215.999219 576.000781 C 215.999219 567.164844 223.163281 560.000781 231.999219 560.000781 C 240.835156 560.000781 247.999219 567.164844 247.999219 576.000781 Z M 247.999219 576.000781 " transform="matrix(1,0,0,-1,-71.3,784.7)"/>
<path style="fill-rule:evenodd;fill:rgb(20%,20%,20%);fill-opacity:1;stroke-width:0.4;stroke-linecap:butt;stroke-linejoin:round;stroke:rgb(20%,20%,20%);stroke-opacity:1;stroke-miterlimit:10;" d="M 151.999219 576.000781 C 151.999219 584.836719 144.835156 592.000781 135.999219 592.000781 C 127.163281 592.000781 119.999219 584.836719 119.999219 576.000781 C 119.999219 567.164844 127.163281 560.000781 135.999219 560.000781 C 144.835156 560.000781 151.999219 567.164844 151.999219 576.000781 Z M 151.999219 576.000781 " transform="matrix(1,0,0,-1,-71.3,784.7)"/>
<path style="fill-rule:evenodd;fill:rgb(20%,20%,20%);fill-opacity:1;stroke-width:0.4;stroke-linecap:butt;stroke-linejoin:round;stroke:rgb(20%,20%,20%);stroke-opacity:1;stroke-miterlimit:10;" d="M 295.999219 576.000781 C 295.999219 584.836719 288.835156 592.000781 279.999219 592.000781 C 271.163281 592.000781 263.999219 584.836719 263.999219 576.000781 C 263.999219 567.164844 271.163281 560.000781 279.999219 560.000781 C 288.835156 560.000781 295.999219 567.164844 295.999219 576.000781 Z M 295.999219 576.000781 " transform="matrix(1,0,0,-1,-71.3,784.7)"/>
<path style="fill-rule:evenodd;fill:rgb(20%,20%,20%);fill-opacity:1;stroke-width:0.4;stroke-linecap:butt;stroke-linejoin:round;stroke:rgb(20%,20%,20%);stroke-opacity:1;stroke-miterlimit:10;" d="M 391.999219 576.000781 C 391.999219 584.836719 384.835156 592.000781 375.999219 592.000781 C 367.163281 592.000781 359.999219 584.836719 359.999219 576.000781 C 359.999219 567.164844 367.163281 560.000781 375.999219 560.000781 C 384.835156 560.000781 391.999219 567.164844 391.999219 576.000781 Z M 391.999219 576.000781 " transform="matrix(1,0,0,-1,-71.3,784.7)"/>
<path style="fill-rule:evenodd;fill:rgb(20%,20%,20%);fill-opacity:1;stroke-width:0.4;stroke-linecap:butt;stroke-linejoin:round;stroke:rgb(20%,20%,20%);stroke-opacity:1;stroke-miterlimit:10;" d="M 439.999219 576.000781 C 439.999219 584.836719 432.835156 592.000781 423.999219 592.000781 C 415.163281 592.000781 407.999219 584.836719 407.999219 576.000781 C 407.999219 567.164844 415.163281 560.000781 423.999219 560.000781 C 432.835156 560.000781 439.999219 567.164844 439.999219 576.000781 Z M 439.999219 576.000781 " transform="matrix(1,0,0,-1,-71.3,784.7)"/>
<path style="fill-rule:evenodd;fill:rgb(20%,20%,20%);fill-opacity:1;stroke-width:0.4;stroke-linecap:butt;stroke-linejoin:round;stroke:rgb(20%,20%,20%);stroke-opacity:1;stroke-miterlimit:10;" d="M 343.999219 576.000781 C 343.999219 584.836719 336.835156 592.000781 327.999219 592.000781 C 319.163281 592.000781 311.999219 584.836719 311.999219 576.000781 C 311.999219 567.164844 319.163281 560.000781 327.999219 560.000781 C 336.835156 560.000781 343.999219 567.164844 343.999219 576.000781 Z M 343.999219 576.000781 " transform="matrix(1,0,0,-1,-71.3,784.7)"/>
</g>
</svg>
